<svg class="icon" viewBox="0 0 1024 1024" version="1.1" xmlns="http://www.w3.org/2000/svg"><path d="M826.163 459.827c0.103-3.123 0.256-6.246 0.256-9.42 0-140.186-113.664-253.85-253.85-253.85-109.875 0-203.366 69.785-238.745 167.424a131.982 131.982 0 0 0-11.93-0.563c-61.081 0-112.435 41.472-127.539 97.792-83.353 16.947-146.073 90.675-146.073 178.995v10.291c0 100.915 81.766 182.682 182.681 182.682h566.221c100.915 0 182.682-81.767 182.682-182.682v-10.291c-0.052-91.034-66.612-166.451-153.703-180.378zM699.392 714.803h-370.74c-16.946 0-30.72-13.773-30.72-30.72s13.774-30.72 30.72-30.72h370.74c16.947 0 30.72 13.773 30.72 30.72s-13.773 30.72-30.72 30.72z" fill="#5097FF"></path></svg>