<svg class="icon" viewBox="0 0 1024 1024" version="1.1" xmlns="http://www.w3.org/2000/svg"><path d="M981.333333 102.4H42.666667c-25.6 0-42.666667 17.066667-42.666667 42.666667v729.6c0 25.6 17.066667 42.666667 42.666667 42.666666h938.666666c25.6 0 42.666667-17.066667 42.666667-42.666666V145.066667c0-21.333333-21.333333-42.666667-42.666667-42.666667z m-42.666666 85.333333v85.333334l-392.533334 260.266666c-21.333333 12.8-46.933333 12.8-68.266666 0L85.333333 277.333333v-85.333333h853.333334zM85.333333 836.266667V379.733333l349.866667 234.666667c25.6 12.8 51.2 21.333333 76.8 21.333333 25.6 0 55.466667-8.533333 81.066667-21.333333L938.666667 379.733333v456.533334H85.333333z"></path></svg>