<svg class="icon" viewBox="0 0 1024 1024" version="1.1" xmlns="http://www.w3.org/2000/svg"><path d="M512 39.4C251 39.4 39.6 256.6 39.6 524c0 214.2 135.4 395.6 323.2 459.6 2.6 0.6 5.4 0.8 8 0.8 17.6 0 24.2-12.8 24.2-24 0-11.6-0.4-42-0.6-82.4-15.6 3.6-31.6 5.6-47.6 5.6-91 0-111.6-70.6-111.6-70.6-21.6-55.8-52.6-70.8-52.6-70.8-41.2-28.8-0.2-29.8 3-29.8h0.2c47.4 4.2 72.4 50.2 72.4 50.2 23.6 41.4 55.2 53 83.6 53 9.4-0.2 18.6-1.4 27.6-3.4 9.2-2.2 17.8-5.2 26.4-9.2 4.2-31.2 16.4-52.6 30-64.8-104.8-12.2-215.2-53.8-215.2-239.4 0-53 18.4-96.2 48.6-130-4.8-12.2-21-61.6 4.6-128.2 3.4-0.8 7-1.2 10.6-1 17 0 55.6 6.6 119.4 50.8 19.2-5.4 38.8-9.4 58.6-12.2 19.8-2.8 39.8-4 59.8-4s40 1.4 59.8 4c19.8 2.8 39.4 6.8 58.6 12.2 63.8-44.2 102.4-50.8 119.4-50.8 3.6-0.2 7 0.2 10.6 1 25.8 66.6 9.4 116 4.6 128.2 30.2 34 48.6 77.2 48.6 130 0 186-110.6 227-215.8 239 16.8 15 32 44.6 32 89.6 0 64.8-0.6 117-0.6 132.8 0 11.4 6.6 24.2 24 24.2 2.8 0 5.6-0.2 8.4-0.8 188-64.2 323.2-245.8 323.2-459.6-0.6-267.4-212-484.6-473-484.6z"></path></svg>